<svg version="1.1" id="Layer_1" xmlns="http://www.w3.org/2000/svg" x="0" y="0" width="56.4" height="59.9" style="enable-background:new 0 0 56.4 59.9" xml:space="preserve"><style>.st0{fill:#FFFFFF}</style><path class="st0" d="M26.1 8.3v3h4.1v-3h11.5v3h4.1v-3h6.4v7.5H4.1V8.3h6.4v3h4.1v-3h11.5zm26.1 44.3c0 1.8-1.4 3.2-3.2 3.2H4.1V20h48.1v32.6zM10.5 0v4.2H0v55.7h49.1c4 0 7.3-3.3 7.3-7.3V4.1H45.9V0h-4.1v4.2H30.2V0h-4.1v4.2H14.6V0h-4.1z"/><path class="st0" d="M11.9 26.8h6.2v4.1h-6.2zM24.8 26.8h6.7v4.1h-6.7zM38.3 26.8h6.2v4.1h-6.2zM11.9 35.8h6.2v4.1h-6.2zM24.8 35.8h6.7v4.1h-6.7zM38.3 35.8h6.2v4.1h-6.2zM11.9 44.9h6.2V49h-6.2zM24.8 44.9h6.7V49h-6.7zM38.3 44.9h6.2V49h-6.2z"/></svg>